# xmcd
#
# Track frame offsets: 
#        182
#        8975
#        17225
#        28482
#        41200
#        50095
#        62237
#        74045
#        84292
#        91790
#        101717
#        111870
#        119462
#        128507
#        139077
#        148232
#        155955
#        165612
#        174427
#        182230
#
# Disc length: 2569 seconds
#
# Revision: 3
# Processed by: cddbd v1.5.2PL0 Copyright (c) Steve Scherf et al.
# Submitted via: ExactAudioCopy v1.1
#
DISCID=2c0a0714
DTITLE=Jim Reeves - Jim Reeves_Live At The Opry
DYEAR=1993
DGENRE=Country
TTITLE0=Yonder comes a sucker
TTITLE1=Waiting for a train
TTITLE2=Am I losing you?
TTITLE3=When God dips his live in my heart
TTITLE4=According to my heart
TTITLE5=Four walls
TTITLE6=Mexican Joe
TTITLE7=Anna Marie
TTITLE8=Blue boy
TTITLE9=Softly and Tenderly
TTITLE10=He'll have to go
TTITLE11=Bimbo
TTITLE12=I'd like to be
TTITLE13=Peace in the Valley
TTITLE14=Billy Bayou
TTITLE15=In a mansion stands my love
TTITLE16=I'm getting better
TTITLE17=(Gimme that) Old time relegion
TTITLE18=I know one
TTITLE19=I missed me
EXTD=
EXTT0=
EXTT1=
EXTT2=
EXTT3=
EXTT4=
EXTT5=
EXTT6=
EXTT7=
EXTT8=
EXTT9=
EXTT10=
EXTT11=
EXTT12=
EXTT13=
EXTT14=
EXTT15=
EXTT16=
EXTT17=
EXTT18=
EXTT19=
PLAYORDER=
